<?xml version="1.0" encoding="UTF-8"?>
<mxfile host="www.draw.io" modified="2020-09-03T15:16:24.814Z" agent="5.0 (Macintosh)" etag="cDrJU8kixNkVxLZfjZsc" version="13.6.6">
  <diagram id="p9xZRedlOZc6xHM36y5h" name="Page-1">
    <mxGraphModel dx="990" dy="1986" grid="1" gridSize="10" guides="1" tooltips="1" connect="1" arrows="1" fold="1" page="1" pageScale="1" pageWidth="827" pageHeight="1169" math="0" shadow="0">
      <root>
        <mxCell id="0" />
        <mxCell id="1" parent="0" />
        <mxCell id="2" value="Im Gespräch mit dem Kunden wird die zu leistende Arbeit formuliert." style="rounded=0;whiteSpace=wrap;html=1;align=left;horizontal=1;verticalAlign=top;strokeColor=none;" parent="1" vertex="1">
          <mxGeometry x="360" y="80" width="360" height="100" as="geometry" />
        </mxCell>
        <mxCell id="3" value="" style="endArrow=none;html=1;" parent="1" edge="1">
          <mxGeometry width="50" height="50" relative="1" as="geometry">
            <mxPoint x="80" y="9.5" as="sourcePoint" />
            <mxPoint x="200" y="9.5" as="targetPoint" />
          </mxGeometry>
        </mxCell>
        <mxCell id="4" value="Angebotsanfrage" style="text;html=1;strokeColor=none;fillColor=none;align=center;verticalAlign=middle;whiteSpace=wrap;rounded=0;" parent="1" vertex="1">
          <mxGeometry x="80" y="-20" width="120" height="20" as="geometry" />
        </mxCell>
        <mxCell id="5" value="" style="endArrow=none;html=1;" parent="1" edge="1">
          <mxGeometry width="50" height="50" relative="1" as="geometry">
            <mxPoint x="140" y="90" as="sourcePoint" />
            <mxPoint x="140" y="10" as="targetPoint" />
          </mxGeometry>
        </mxCell>
        <mxCell id="6" value="" style="verticalLabelPosition=bottom;verticalAlign=top;html=1;shape=hexagon;perimeter=hexagonPerimeter2;arcSize=6;size=0.15098444620768228;" parent="1" vertex="1">
          <mxGeometry x="80" y="590" width="120" height="80" as="geometry" />
        </mxCell>
        <mxCell id="7" value="Angebot angenommen?" style="text;html=1;strokeColor=none;fillColor=none;align=center;verticalAlign=middle;whiteSpace=wrap;rounded=0;" parent="1" vertex="1">
          <mxGeometry x="80" y="590" width="120" height="80" as="geometry" />
        </mxCell>
        <mxCell id="8" value="" style="endArrow=none;html=1;" parent="1" edge="1">
          <mxGeometry width="50" height="50" relative="1" as="geometry">
            <mxPoint x="140" y="290" as="sourcePoint" />
            <mxPoint x="140" y="270" as="targetPoint" />
          </mxGeometry>
        </mxCell>
        <mxCell id="9" value="" style="endArrow=none;html=1;" parent="1" edge="1">
          <mxGeometry width="50" height="50" relative="1" as="geometry">
            <mxPoint x="80" y="529" as="sourcePoint" />
            <mxPoint x="200" y="529" as="targetPoint" />
          </mxGeometry>
        </mxCell>
        <mxCell id="10" value="" style="endArrow=none;html=1;" parent="1" edge="1">
          <mxGeometry width="50" height="50" relative="1" as="geometry">
            <mxPoint x="80" y="540" as="sourcePoint" />
            <mxPoint x="200" y="540" as="targetPoint" />
          </mxGeometry>
        </mxCell>
        <mxCell id="11" value="" style="endArrow=none;html=1;exitX=0.5;exitY=0;exitDx=0;exitDy=0;entryX=0.5;entryY=1;entryDx=0;entryDy=0;" parent="1" target="7" edge="1">
          <mxGeometry width="50" height="50" relative="1" as="geometry">
            <mxPoint x="140" y="701" as="sourcePoint" />
            <mxPoint x="440" y="708" as="targetPoint" />
          </mxGeometry>
        </mxCell>
        <mxCell id="12" value="Anfrage beurteilen" style="rounded=0;whiteSpace=wrap;html=1;" parent="1" vertex="1">
          <mxGeometry x="80" y="120" width="120" height="50" as="geometry" />
        </mxCell>
        <mxCell id="13" value="Verkäufer" style="rounded=0;whiteSpace=wrap;html=1;" parent="1" vertex="1">
          <mxGeometry x="80" y="90" width="120" height="30" as="geometry" />
        </mxCell>
        <mxCell id="14" value="" style="rounded=0;whiteSpace=wrap;html=1;align=left;horizontal=1;verticalAlign=top;strokeColor=none;" parent="1" vertex="1">
          <mxGeometry x="760" y="80" width="160" height="100" as="geometry" />
        </mxCell>
        <mxCell id="15" value="Ein potentieller Kunde meldet sich in irgendeiner Form mit einer Anfrage. Er möchte eine Arbeit beauftragen und hierfür die Machbarkeit und den Aufwand beurteilen lassen." style="rounded=0;whiteSpace=wrap;html=1;align=left;horizontal=1;verticalAlign=top;strokeColor=none;" parent="1" vertex="1">
          <mxGeometry x="360" y="-20" width="360" height="100" as="geometry" />
        </mxCell>
        <mxCell id="16" value="" style="endArrow=none;html=1;" parent="1" edge="1">
          <mxGeometry width="50" height="50" relative="1" as="geometry">
            <mxPoint x="140" y="390" as="sourcePoint" />
            <mxPoint x="140" y="370" as="targetPoint" />
          </mxGeometry>
        </mxCell>
        <mxCell id="17" value="Angebot erstellen" style="rounded=0;whiteSpace=wrap;html=1;fillColor=#fff2cc;strokeColor=#000000;" parent="1" vertex="1">
          <mxGeometry x="80" y="320" width="120" height="50" as="geometry" />
        </mxCell>
        <mxCell id="18" value="Verkäufer" style="rounded=0;whiteSpace=wrap;html=1;" parent="1" vertex="1">
          <mxGeometry x="80" y="290" width="120" height="30" as="geometry" />
        </mxCell>
        <mxCell id="19" value="" style="rounded=0;whiteSpace=wrap;html=1;align=left;horizontal=1;verticalAlign=top;strokeColor=none;" parent="1" vertex="1">
          <mxGeometry x="360" y="280" width="360" height="100" as="geometry" />
        </mxCell>
        <mxCell id="20" value="&lt;a href=&quot;https://wiki.mint-system.ch/books/odoo---verk%C3%A4ufe/page/angebot&quot;&gt;Angebot&lt;/a&gt;" style="rounded=0;whiteSpace=wrap;html=1;align=left;horizontal=1;verticalAlign=top;strokeColor=none;" parent="1" vertex="1">
          <mxGeometry x="760" y="280" width="160" height="100" as="geometry" />
        </mxCell>
        <mxCell id="21" value="" style="endArrow=none;html=1;" parent="1" edge="1">
          <mxGeometry width="50" height="50" relative="1" as="geometry">
            <mxPoint x="140" y="390" as="sourcePoint" />
            <mxPoint x="140" y="370" as="targetPoint" />
          </mxGeometry>
        </mxCell>
        <mxCell id="22" value="Angebot senden" style="rounded=0;whiteSpace=wrap;html=1;fillColor=#fff2cc;strokeColor=#000000;" parent="1" vertex="1">
          <mxGeometry x="80" y="420" width="120" height="50" as="geometry" />
        </mxCell>
        <mxCell id="23" value="Verkäufer" style="rounded=0;whiteSpace=wrap;html=1;" parent="1" vertex="1">
          <mxGeometry x="80" y="390" width="120" height="30" as="geometry" />
        </mxCell>
        <mxCell id="24" value="In der Regel per eMail.&lt;br&gt;Falls ausdrücklich gewünscht per Briefpost.&lt;br&gt;&lt;br&gt;" style="rounded=0;whiteSpace=wrap;html=1;align=left;horizontal=1;verticalAlign=top;strokeColor=none;" parent="1" vertex="1">
          <mxGeometry x="360" y="380" width="360" height="100" as="geometry" />
        </mxCell>
        <mxCell id="25" value="Mit dem Kunden wird zeitnah telefoniert um sicherzustellen, dass des Angebot richtig verstanden wird." style="rounded=0;whiteSpace=wrap;html=1;align=left;horizontal=1;verticalAlign=top;strokeColor=none;" parent="1" vertex="1">
          <mxGeometry x="360" y="480" width="360" height="100" as="geometry" />
        </mxCell>
        <mxCell id="26" value="Auftrag erfassen" style="rounded=0;whiteSpace=wrap;html=1;fillColor=#fff2cc;strokeColor=#000000;" parent="1" vertex="1">
          <mxGeometry x="80" y="720" width="120" height="50" as="geometry" />
        </mxCell>
        <mxCell id="27" value="Verkäufer" style="rounded=0;whiteSpace=wrap;html=1;" parent="1" vertex="1">
          <mxGeometry x="80" y="690" width="120" height="30" as="geometry" />
        </mxCell>
        <mxCell id="28" value="Auftrag" style="text;html=1;strokeColor=none;fillColor=none;align=center;verticalAlign=middle;whiteSpace=wrap;rounded=0;" parent="1" vertex="1">
          <mxGeometry x="80" y="850" width="120" height="20" as="geometry" />
        </mxCell>
        <mxCell id="29" value="" style="endArrow=none;html=1;" parent="1" edge="1">
          <mxGeometry width="50" height="50" relative="1" as="geometry">
            <mxPoint x="80" y="840" as="sourcePoint" />
            <mxPoint x="200" y="840" as="targetPoint" />
          </mxGeometry>
        </mxCell>
        <mxCell id="30" value="" style="endArrow=none;html=1;entryX=0.5;entryY=1;entryDx=0;entryDy=0;" parent="1" target="26" edge="1">
          <mxGeometry width="50" height="50" relative="1" as="geometry">
            <mxPoint x="140" y="840" as="sourcePoint" />
            <mxPoint x="240" y="760" as="targetPoint" />
          </mxGeometry>
        </mxCell>
        <mxCell id="31" value="" style="endArrow=none;html=1;" parent="1" source="7" edge="1">
          <mxGeometry width="50" height="50" relative="1" as="geometry">
            <mxPoint x="390" y="740" as="sourcePoint" />
            <mxPoint x="140" y="540" as="targetPoint" />
          </mxGeometry>
        </mxCell>
        <mxCell id="32" value="" style="endArrow=none;html=1;entryX=0.5;entryY=1;entryDx=0;entryDy=0;" parent="1" target="22" edge="1">
          <mxGeometry width="50" height="50" relative="1" as="geometry">
            <mxPoint x="140" y="530" as="sourcePoint" />
            <mxPoint x="440" y="690" as="targetPoint" />
          </mxGeometry>
        </mxCell>
        <mxCell id="33" value="Abgelehntes Angebot" style="text;html=1;strokeColor=none;fillColor=none;align=center;verticalAlign=middle;whiteSpace=wrap;rounded=0;" parent="1" vertex="1">
          <mxGeometry x="220" y="850" width="120" height="20" as="geometry" />
        </mxCell>
        <mxCell id="34" value="" style="endArrow=none;html=1;" parent="1" edge="1">
          <mxGeometry width="50" height="50" relative="1" as="geometry">
            <mxPoint x="220" y="840" as="sourcePoint" />
            <mxPoint x="340" y="840" as="targetPoint" />
          </mxGeometry>
        </mxCell>
        <mxCell id="35" value="" style="edgeStyle=orthogonalEdgeStyle;rounded=0;orthogonalLoop=1;jettySize=auto;html=1;strokeColor=none;startArrow=none;startFill=0;" parent="1" target="36" edge="1">
          <mxGeometry relative="1" as="geometry">
            <mxPoint x="400" y="620" as="sourcePoint" />
          </mxGeometry>
        </mxCell>
        <mxCell id="36" value="Nein" style="text;html=1;strokeColor=none;fillColor=none;align=left;verticalAlign=middle;whiteSpace=wrap;rounded=0;" parent="1" vertex="1">
          <mxGeometry x="210" y="610" width="70" height="20" as="geometry" />
        </mxCell>
        <mxCell id="37" value="Ja" style="text;html=1;strokeColor=none;fillColor=none;align=left;verticalAlign=middle;whiteSpace=wrap;rounded=0;" parent="1" vertex="1">
          <mxGeometry x="150" y="670" width="70" height="20" as="geometry" />
        </mxCell>
        <mxCell id="38" value="" style="endArrow=none;html=1;edgeStyle=orthogonalEdgeStyle;entryX=1;entryY=0.5;entryDx=0;entryDy=0;rounded=0;" parent="1" target="7" edge="1">
          <mxGeometry width="50" height="50" relative="1" as="geometry">
            <mxPoint x="280" y="840" as="sourcePoint" />
            <mxPoint x="380" y="770" as="targetPoint" />
            <Array as="points">
              <mxPoint x="280" y="630" />
            </Array>
          </mxGeometry>
        </mxCell>
        <mxCell id="39" value="Mit dem Knopf &quot;Bestätigen&quot; wird das Angebot zum Verkaufsauftrag." style="rounded=0;whiteSpace=wrap;html=1;align=left;horizontal=1;verticalAlign=top;strokeColor=none;" parent="1" vertex="1">
          <mxGeometry x="360" y="680" width="360" height="100" as="geometry" />
        </mxCell>
        <mxCell id="40" value="Kontaktdaten&lt;br&gt;pflegen" style="rounded=0;whiteSpace=wrap;html=1;fillColor=#fff2cc;strokeColor=#000000;" parent="1" vertex="1">
          <mxGeometry x="80" y="220" width="120" height="50" as="geometry" />
        </mxCell>
        <mxCell id="41" value="Verkäufer" style="rounded=0;whiteSpace=wrap;html=1;" parent="1" vertex="1">
          <mxGeometry x="80" y="190" width="120" height="30" as="geometry" />
        </mxCell>
        <mxCell id="42" value="" style="endArrow=none;html=1;entryX=0.5;entryY=1;entryDx=0;entryDy=0;" parent="1" source="41" target="12" edge="1">
          <mxGeometry width="50" height="50" relative="1" as="geometry">
            <mxPoint x="490" y="380" as="sourcePoint" />
            <mxPoint x="540" y="330" as="targetPoint" />
          </mxGeometry>
        </mxCell>
        <mxCell id="43" value="Neu erfassen oder nachführen" style="rounded=0;whiteSpace=wrap;html=1;align=left;horizontal=1;verticalAlign=top;strokeColor=none;" parent="1" vertex="1">
          <mxGeometry x="360" y="180" width="360" height="100" as="geometry" />
        </mxCell>
        <mxCell id="44" value="&lt;a href=&quot;https://wiki.mint-system.ch/books/odoo---kontakte&quot;&gt;Kontakte&lt;/a&gt;" style="rounded=0;whiteSpace=wrap;html=1;align=left;horizontal=1;verticalAlign=top;strokeColor=none;" parent="1" vertex="1">
          <mxGeometry x="760" y="180" width="160" height="100" as="geometry" />
        </mxCell>
        <mxCell id="45" value="&lt;a href=&quot;https://wiki.mint-system.ch/books/odoo---verk%C3%A4ufe/page/angebot&quot;&gt;Angebot&lt;/a&gt;" style="rounded=0;whiteSpace=wrap;html=1;align=left;horizontal=1;verticalAlign=top;strokeColor=none;" parent="1" vertex="1">
          <mxGeometry x="760" y="380" width="160" height="100" as="geometry" />
        </mxCell>
        <mxCell id="46" value="&lt;a href=&quot;https://wiki.mint-system.ch/books/odoo---verk%C3%A4ufe/page/angebot&quot;&gt;Angebot&lt;/a&gt;" style="rounded=0;whiteSpace=wrap;html=1;align=left;horizontal=1;verticalAlign=top;strokeColor=none;" parent="1" vertex="1">
          <mxGeometry x="760" y="680" width="160" height="100" as="geometry" />
        </mxCell>
        <mxCell id="47" value="" style="rounded=0;whiteSpace=wrap;html=1;align=left;horizontal=1;verticalAlign=top;strokeColor=none;" parent="1" vertex="1">
          <mxGeometry x="760" y="-20" width="160" height="100" as="geometry" />
        </mxCell>
        <mxCell id="48" value="" style="rounded=0;whiteSpace=wrap;html=1;align=left;horizontal=1;verticalAlign=top;strokeColor=none;" parent="1" vertex="1">
          <mxGeometry x="760" y="480" width="160" height="100" as="geometry" />
        </mxCell>
        <mxCell id="49" value="" style="rounded=0;whiteSpace=wrap;html=1;align=left;horizontal=1;verticalAlign=top;strokeColor=none;" parent="1" vertex="1">
          <mxGeometry x="760" y="580" width="160" height="100" as="geometry" />
        </mxCell>
        <mxCell id="50" value="" style="rounded=0;whiteSpace=wrap;html=1;align=left;horizontal=1;verticalAlign=top;strokeColor=none;" parent="1" vertex="1">
          <mxGeometry x="360" y="580" width="360" height="100" as="geometry" />
        </mxCell>
        <mxCell id="51" value="" style="rounded=0;whiteSpace=wrap;html=1;align=left;horizontal=1;verticalAlign=top;strokeColor=none;" parent="1" vertex="1">
          <mxGeometry x="760" y="780" width="160" height="100" as="geometry" />
        </mxCell>
        <mxCell id="52" value="" style="rounded=0;whiteSpace=wrap;html=1;align=left;horizontal=1;verticalAlign=top;strokeColor=none;" parent="1" vertex="1">
          <mxGeometry x="360" y="780" width="360" height="100" as="geometry" />
        </mxCell>
      </root>
    </mxGraphModel>
  </diagram>
</mxfile>
